<?xml version="1.0" encoding="UTF-8"?>
<svg id="Layer_2" data-name="Layer 2" xmlns="http://www.w3.org/2000/svg" viewBox="0 0 660.93 483.25">
  <defs>
    <style>
      .cls-1 {
        fill: #f7941d;
      }

      .cls-2 {
        fill: #f8bf3f;
      }
    </style>
  </defs>
  <g id="Layer_1-2" data-name="Layer 1">
    <g>
      <path class="cls-1" d="M485.45,389.96c-6.81-12.7-19.2-21.23-34.89-24-14.6-2.58-30.5.21-44.75,7.86-24.41,13.1-47.09,40.29-62.23,61.5v-118.8c26.08-12.03,102.9-51.94,102.9-104.55,0-90.28-101.95-198.14-106.29-202.69l-8.86-9.29-8.86,9.29c-4.34,4.55-106.26,112.4-106.28,202.68-.01,52.62,76.82,92.53,102.9,104.55v118.8c-15.13-21.21-37.82-48.41-62.23-61.5h0c-14.26-7.65-30.15-10.43-44.75-7.86-15.69,2.77-28.07,11.29-34.89,23.99-6.81,12.7-7.06,27.74-.68,42.34,5.93,13.59,17.05,25.29,31.31,32.93,28.82,15.45,72.69,18.03,98.75,18.03h49.49c26.06,0,69.93-2.58,98.74-18.03,30.4-16.3,44.14-50.06,30.63-75.26ZM219.42,443.63c-9.43-5.06-16.69-12.56-20.43-21.14-3.3-7.57-3.37-15.01-.18-20.95,3.19-5.94,9.42-10.01,17.55-11.45,2.16-.38,4.37-.57,6.62-.57,7.35,0,15.07,2.02,22.29,5.89h0c23.73,12.73,46.97,43.56,60.17,63.31-23.75-.07-62.29-2.36-86.02-15.09ZM331.32,244.94c-10.81-15.4-24.45-39.11-24.45-57.56,0-14.56,10.97-26.4,24.46-26.4,6.41,0,12.48,2.67,17.08,7.51,4.76,5.01,7.38,11.72,7.38,18.89,0,18.39-13.66,42.13-24.47,57.56ZM240.69,211.98c.02-65.99,66.27-147.99,90.65-175.93,24.39,27.92,90.64,109.85,90.64,175.93,0,30.6-47.09,61.27-78.4,77.29v-19.8c9.2-11.65,36.71-49.2,36.71-82.08,0-13.48-5.01-26.18-14.12-35.77-9.27-9.76-21.65-15.13-34.84-15.13-27,0-48.97,22.84-48.97,50.9,0,32.88,27.51,70.43,36.71,82.08v19.75c-30.74-15.89-78.4-46.93-78.4-77.23ZM443.24,443.63c-23.74,12.73-62.28,15.02-86.03,15.09,13.18-19.74,36.4-50.55,60.18-63.31,9.43-5.06,19.7-6.95,28.91-5.32,8.13,1.44,14.37,5.5,17.56,11.45,7.01,13.07-2.43,32.34-20.61,42.09Z"/>
      <g>
        <path class="cls-2" d="M193.01,156.37l3.54,2.24,6.55,4.12s4.46-14.81,8.43-23.13l.22-.48-5.47-3.36c-42.11-27.12-79.09-38.67-80.64-39.15l-12.22-3.77-3.24,12.37c-1.05,3.99-23.66,92.81,5.42,179.75-1.96-.04-3.2-.04-3.47-.04h0c-54.66-.54-98.01,14.61-100.06,15.34l-12.05,4.29,4.8,11.85c1.67,4.13,41.99,101.68,130.18,141.29,3.46,1.55,5.9,2.76,10.62,4.4,21.84,7.58,39.63,10.46,39.63,10.46-18.56-13.72-27.98-32.29-27.98-32.29-1.05-.29-9.2-3.56-12.22-4.92-61.62-27.68-98.34-89.48-111.72-115.85,18.11-4.77,53.03-12,91.74-9.61,4.67,10.68,10.92,23.15,17.96,32.51,7,9.29,17.74,14.74,28.92,14.74.41,0,.83,0,1.24-.02,10.45-.38,19.53-5.38,24.92-13.73,5.26-8.14,6.74-17.39,4.19-26.05-2.71-9.2-9.78-16.96-19.37-21.28-11.41-5.15-27.01-7.91-40.67-9.4-24.64-64.13-16.25-133.61-11.12-162.02,13.73,5.4,37,15.7,61.89,31.73ZM172.83,318.4c3.04,1.37,5.26,3.57,5.94,5.88.19.65.78,2.65-1.27,5.82-1.35,2.09-3.85,2.49-5.22,2.53-3.66.14-7.26-1.73-9.71-4.98-3.16-4.2-6.2-9.34-8.96-14.66,7.24,1.31,14.05,3.06,19.22,5.4Z"/>
        <path class="cls-2" d="M529.81,124.64c5.13,28.41,13.53,97.89-11.12,162.02-13.66,1.49-29.25,4.26-40.67,9.4-9.59,4.33-16.66,12.08-19.37,21.28-2.56,8.66-1.07,17.91,4.19,26.05,5.39,8.35,14.48,13.35,24.92,13.73.41.02.83.02,1.24.02,11.19,0,21.92-5.45,28.92-14.74,7.04-9.36,13.29-21.83,17.96-32.51,38.71-2.39,73.63,4.84,91.74,9.61-13.38,26.36-50.1,88.17-111.72,115.85-3.02,1.36-11.17,4.63-12.22,4.92,0,0-9.42,18.57-27.98,32.29,0,0,17.78-2.88,39.63-10.46,4.72-1.64,7.16-2.84,10.62-4.4,88.2-39.62,128.51-137.16,130.18-141.29l4.8-11.85-12.05-4.29c-2.06-.73-45.4-15.88-100.06-15.34h0c-.28,0-1.51,0-3.47.04,29.07-86.94,6.46-175.76,5.42-179.75l-3.24-12.37-12.22,3.77c-1.55.48-38.53,12.04-80.64,39.15l-5.47,3.36.22.48c3.97,8.32,8.43,23.13,8.43,23.13l6.55-4.12,3.54-2.24c24.89-16.02,48.16-26.32,61.89-31.73ZM507.32,313.01c-2.76,5.32-5.8,10.46-8.96,14.66-2.44,3.25-6.05,5.11-9.71,4.98-1.37-.05-3.87-.44-5.22-2.53-2.05-3.17-1.46-5.17-1.27-5.82.68-2.31,2.9-4.51,5.94-5.88,5.17-2.33,11.98-4.09,19.22-5.4Z"/>
      </g>
    </g>
  </g>
</svg>